<?xml version="1.0" encoding="UTF-8" standalone="no"?>
<!-- Created with Inkscape (http://www.inkscape.org/) -->

<svg
   width="4.0000367mm"
   height="4mm"
   viewBox="0 0 4.0000367 4"
   version="1.1"
   id="svg5"
   xml:space="preserve"
   inkscape:export-filename="heart-cropped2.svg"
   inkscape:export-xdpi="96"
   inkscape:export-ydpi="96"
   xmlns:inkscape="http://www.inkscape.org/namespaces/inkscape"
   xmlns:sodipodi="http://sodipodi.sourceforge.net/DTD/sodipodi-0.dtd"
   xmlns="http://www.w3.org/2000/svg"
   xmlns:svg="http://www.w3.org/2000/svg"><sodipodi:namedview
     id="namedview7"
     pagecolor="#ffffff"
     bordercolor="#000000"
     borderopacity="0.25"
     inkscape:showpageshadow="2"
     inkscape:pageopacity="0.0"
     inkscape:pagecheckerboard="0"
     inkscape:deskcolor="#d1d1d1"
     inkscape:document-units="mm"
     showgrid="false" /><defs
     id="defs2" /><g
     inkscape:label="Calque 1"
     inkscape:groupmode="layer"
     id="layer1"
     transform="translate(-91.813541,-131.16949)"><path
       d="m 91.814755,131.30402 a 0.13333601,0.13333333 0 0 1 0.13334,-0.13333 h 0.4 a 0.13333601,0.13333333 0 0 1 0.12934,0.10106 l 0.108,0.43227 h 3.09606 a 0.13333601,0.13333333 0 0 1 0.13067,0.15947 l -0.26667,1.33333 a 0.13333601,0.13333333 0 0 1 -0.124,0.10693 l -2.50592,0.12587 0.0765,0.40773 h 2.28938 a 0.13333768,0.133335 0 0 1 0,0.26667 h -2.40005 a 0.13333601,0.13333333 0 0 1 -0.13094,-0.1088 l -0.39974,-2.12933 -0.10667,-0.42854 h -0.296 a 0.13333601,0.13333333 0 0 1 -0.13334,-0.13333 z m 0.82722,0.66667 0.224,1.1944 2.43845,-0.1224 0.2144,-1.072 z m 0.50614,2.13333 a 0.53334572,0.533335 0 1 0 0,1.06667 0.53334572,0.533335 0 0 0 0,-1.06667 z m 1.8667,0 a 0.53334572,0.533335 0 1 0 0,1.06667 0.53334572,0.533335 0 0 0 0,-1.06667 z m -1.8667,0.26667 a 0.26667203,0.26666667 0 1 1 0,0.53333 0.26667203,0.26666667 0 0 1 0,-0.53333 z m 1.8667,0 a 0.26667203,0.26666667 0 1 1 0,0.53333 0.26667203,0.26666667 0 0 1 0,-0.53333 z"
       id="path9"
       style="fill:#000000;stroke-width:0.266669" /></g></svg>
