<?xml version="1.0" encoding="UTF-8" standalone="no"?>
<!-- Created with Inkscape (http://www.inkscape.org/) -->

<svg
   width="4.0000367mm"
   height="4mm"
   viewBox="0 0 4.0000367 4"
   version="1.1"
   id="svg5"
   xml:space="preserve"
   inkscape:export-filename="cart-cropped2.svg"
   inkscape:export-xdpi="96"
   inkscape:export-ydpi="96"
   xmlns:inkscape="http://www.inkscape.org/namespaces/inkscape"
   xmlns:sodipodi="http://sodipodi.sourceforge.net/DTD/sodipodi-0.dtd"
   xmlns="http://www.w3.org/2000/svg"
   xmlns:svg="http://www.w3.org/2000/svg"><sodipodi:namedview
     id="namedview7"
     pagecolor="#ffffff"
     bordercolor="#000000"
     borderopacity="0.25"
     inkscape:showpageshadow="2"
     inkscape:pageopacity="0.0"
     inkscape:pagecheckerboard="0"
     inkscape:deskcolor="#d1d1d1"
     inkscape:document-units="mm"
     showgrid="false" /><defs
     id="defs2" /><g
     inkscape:label="Calque 1"
     inkscape:groupmode="layer"
     id="layer1"
     transform="translate(-91.813541,-131.16949)"><path
       d="m 93.815117,133.1709 a 1,1 0 1 0 0,-2 1,1 0 0 0 0,2 z m 0.66666,-1 a 0.66666666,0.66666666 0 1 1 -1.33333,0 0.66666666,0.66666666 0 0 1 1.33333,0 z m 1.33334,2.66666 c 0,0.33334 -0.33334,0.33334 -0.33334,0.33334 h -3.33333 c 0,0 -0.33333,0 -0.33333,-0.33334 0,-0.33333 0.33333,-1.33333 2,-1.33333 1.66666,0 2,1 2,1.33333 z m -0.33334,-0.001 c -3.3e-4,-0.082 -0.0513,-0.32867 -0.27733,-0.55467 -0.21733,-0.21733 -0.62633,-0.444 -1.38933,-0.444 -0.76334,0 -1.172,0.22667 -1.38934,0.444 -0.226,0.226 -0.27666,0.47267 -0.27733,0.55467 z"
       id="path278"
       style="fill:#000000;stroke-width:0.333333" /></g></svg>
